<svg width="94" height="53" viewBox="0 0 94 53" fill="none" xmlns="http://www.w3.org/2000/svg">
<path d="M93.5418 42.1309V17.2898L81.5043 16.2734L77.8899 0.123047L10.4569 4.22714L7.93617 27.2133L0.375488 31.6385L12.9008 52.3613L93.5418 42.1309Z" fill="#FABF25"/>
<path d="M28.0174 7.88527L31.5212 23.175L28.0304 23.9742L26.138 15.7137L23.6971 23.7712L20.1241 23.9656L16.8148 16.2235L15.8384 24.6482L12.2827 24.2378L14.0886 8.64997L17.3937 8.46852L21.606 18.3232L24.7167 8.06241L28.0174 7.88095V7.88527Z" fill="#081734"/>
<path d="M47.6145 14.4004C47.865 18.9713 44.3483 22.8985 39.7774 23.149C35.2065 23.3996 31.2793 19.8829 31.0287 15.3119C30.7781 10.741 34.2949 6.81383 38.8658 6.56325C43.4367 6.31267 47.3639 9.82943 47.6145 14.4004ZM43.8212 14.6077C43.683 12.1235 41.5401 9.9936 39.0602 10.1275C36.576 10.2658 34.6794 12.6161 34.8176 15.1002C34.9559 17.5844 37.0988 19.7144 39.5786 19.5804C42.0585 19.4465 43.9595 17.0876 43.8212 14.6077Z" fill="#081734"/>
<path d="M58.1043 16.3315L60.4373 19.9001L57.439 21.8573L54.9418 18.0294C54.6999 18.0726 54.4536 18.1029 54.1987 18.1202L52.8076 18.1979L53.0236 22.1078L49.4506 22.3023L48.5909 6.66694C48.5909 6.66694 52.315 6.46388 53.555 6.39475C56.7952 6.21762 59.5646 8.6975 59.7417 11.9378C59.8368 13.6313 59.1973 15.1996 58.1086 16.3315H58.1043ZM56.3891 12.1192C56.32 10.8533 55.0152 9.89855 53.7494 9.96768L52.3582 10.0454L52.6088 14.625L54 14.5472C55.2658 14.4781 56.4582 13.3851 56.3891 12.1192Z" fill="#081734"/>
<path d="M77.3385 12.7716C77.5891 17.3425 74.0723 21.2697 69.5014 21.5203C64.9304 21.7709 61.0033 18.2541 60.7527 13.6832C60.5021 9.11225 64.0189 5.18506 68.5898 4.93448C73.1607 4.6839 77.0879 8.20066 77.3385 12.7716ZM73.5452 12.979C73.407 10.4948 71.2641 8.36483 68.7842 8.49876C66.3043 8.63269 64.4034 10.9873 64.5416 13.4715C64.6799 15.9557 66.8228 18.0856 69.3026 17.9517C71.7825 17.8177 73.6835 15.4588 73.5452 12.979Z" fill="#081734"/>
<path d="M54.6178 37.808C54.9893 40.115 53.2828 42.8412 49.7746 43.4071C47.0139 43.8521 44.8538 42.69 44.3699 42.4221L46.2925 39.1646C46.8541 39.4454 47.6534 40.3181 49.2216 40.0632C50.5394 39.8515 50.9109 38.9097 50.8893 38.4085C50.872 38.0629 50.7078 37.2377 48.228 37.1772C48.1891 37.1772 48.1156 37.1772 48.0768 37.1772C44.223 37.1081 42.0369 35.5916 41.579 32.7748C41.2074 30.4677 42.9139 27.7416 46.4221 27.1756C49.3081 26.709 51.546 27.9922 51.883 28.1952C51.9867 28.2557 52.2978 28.4415 52.2978 28.4415L50.3622 31.6904C50.3622 31.6904 50.0295 31.4744 49.9086 31.4182C49.2476 31.1114 48.565 30.4375 46.9924 30.6924C45.6747 30.9041 45.2426 31.6861 45.3074 32.1742C45.3593 32.5717 45.4889 33.3321 48.0379 33.3926C48.0768 33.3926 48.1502 33.3926 48.1891 33.3926C51.9996 33.4617 54.1598 34.9782 54.6178 37.808Z" fill="#081734"/>
<path d="M65.8464 30.6016C66.3648 33.803 64.1873 36.8186 60.986 37.3371L59.6121 37.5574L60.2386 41.4241L56.7045 41.9944L54.203 26.5362C54.203 26.5362 57.884 25.94 59.1109 25.7413C62.3123 25.2228 65.3279 27.4003 65.8464 30.6016ZM62.5327 31.1374C62.3296 29.8888 60.9341 29.0722 59.6812 29.2753L58.3074 29.4956L59.0375 34.0234L60.4114 33.803C61.6599 33.6 62.7314 32.3859 62.5283 31.1374H62.5327Z" fill="#081734"/>
<path d="M68.7928 40.1064L66.2914 24.6482L69.8254 24.0779L72.3269 39.5361L68.7928 40.1064Z" fill="#081734"/>
<path d="M79.5851 22.4924L83.1191 21.9221L85.6206 37.3889L82.0692 37.9635L75.8609 30.3511L77.2175 38.7455L73.6835 39.3158L71.182 23.8619L74.6987 23.2916L80.9416 30.9214L79.5764 22.4924H79.5851Z" fill="#081734"/>
<path d="M86.6488 32.3643L84.4714 21.6931L88.4461 21.0494L89.7422 31.8632L86.6488 32.3643ZM86.9124 35.3843C86.7568 34.4295 87.4092 33.5265 88.364 33.371L88.4331 33.358C89.3879 33.2025 90.2909 33.8549 90.4464 34.8097C90.6019 35.7645 89.9496 36.6674 88.9948 36.8229L88.9256 36.8359C87.9708 36.9914 87.0679 36.3391 86.9124 35.3843Z" fill="#081734"/>
<path d="M32.5588 27.4793C35.0948 25.9509 37.7478 24.352 40.5753 24.7137C36.7135 25.2802 33.958 27.551 31.2738 29.7629C27.723 32.689 24.2971 35.5122 18.6003 34.1514C20.5992 33.2692 21.7758 30.9018 22.2003 29.1153C22.693 27.0454 24.2425 26.5628 25.6615 28.172C27.0701 29.7692 28.4983 29.6831 29.8769 29.0008C30.7576 28.5648 31.6507 28.0266 32.5588 27.4793Z" fill="#081734"/>
<path d="M47.9334 25.7887C40.4303 23.7056 36.1856 27.3614 32.0928 30.8863C29.3012 33.2906 26.5803 35.634 22.9444 36.0537C19.7751 36.4194 17.8052 35.9194 16.7356 33.7161C16.0279 32.2068 14.9776 30.9601 13.5309 30.4971C12.0787 30.0414 10.2301 30.3622 9.00483 31.3696C7.77983 32.3766 7.18509 34.0702 7.37866 35.535C7.57856 36.9931 8.56023 38.2159 9.56368 39.017C10.5678 39.8176 11.5871 40.1968 12.462 40.3848C12.9422 40.4876 13.3787 40.5331 13.7749 40.5743C14.1006 40.6082 14.3991 40.6392 14.6724 40.697C15.2783 40.818 15.7663 41.0644 16.0108 41.3531C16.2558 41.6488 16.2708 41.9857 16.158 42.2137C16.0452 42.4485 15.8187 42.5653 15.5588 42.5613C15.2929 42.5568 15.0007 42.4296 14.838 42.1359C14.5756 41.6448 14.1895 41.8755 14.6954 42.7866C14.9542 43.2405 15.5361 43.4462 16.0183 43.4024C16.5009 43.3521 16.8907 43.0588 17.1306 42.6166C17.3637 42.174 17.4476 41.596 17.2087 40.9615C16.9696 40.3278 16.407 39.6448 15.3506 39.1916C14.9975 39.0406 14.5884 38.9153 14.163 38.785C13.3149 38.5252 12.4019 38.2455 11.7376 37.7028C10.7332 36.8816 10.276 35.4736 10.4552 34.4206C10.6344 33.3675 11.4425 32.662 12.3626 32.4812C13.2824 32.3002 14.3069 32.6372 15.1863 33.8597C15.5719 34.393 15.9295 35.0987 16.305 35.8397C16.4846 36.194 16.6684 36.5566 16.8612 36.9121C17.664 38.3933 18.5478 39.4067 19.3606 39.9313L19.6713 40.1293C22.9208 42.6806 27.7065 41.9113 30.7657 39.2099C32.5914 37.5994 34.0995 35.6335 35.577 33.7077C38.827 29.4715 41.9284 25.429 47.9334 25.7887Z" fill="#081734"/>
<path d="M22.7515 42.989L22.8119 42.9987C23.191 43.0598 23.865 43.1683 24.5631 43.1858C25.3018 43.2117 26.0678 43.1361 26.9851 42.8671C27.8953 42.5991 28.955 42.1288 29.9669 41.4878C30.0788 41.4419 30.196 41.383 30.3026 41.3295C30.7937 41.083 31.0603 40.9491 29.5476 42.7048C28.7884 43.6089 28.6682 44.0915 28.7524 44.4887C28.8366 44.8856 29.1268 45.206 29.7765 45.407C30.6804 45.6938 32.8368 45.5498 34.7407 45.4227C35.7672 45.3541 36.7204 45.2904 37.3643 45.3019C38.0205 45.3141 38.0845 45.4466 38.09 45.5259C38.101 45.5961 38.0513 45.6039 35.4193 46.018L20.5921 48.3508C20.5863 48.3517 20.58 48.3528 20.5733 48.3539C20.5047 48.3654 20.39 48.3848 20.3413 48.3275C20.2789 48.2568 20.2985 48.1023 20.5078 47.9981C20.5989 47.9527 20.7275 47.9183 20.8968 47.8731C21.1162 47.8144 21.404 47.7375 21.7673 47.5947C22.4106 47.3417 23.292 46.8912 23.7866 46.4741C24.2809 46.0575 24.3878 45.675 24.3598 45.3584C24.3321 45.0416 24.1588 44.7746 23.7994 44.3849C23.5187 44.0677 23.1166 43.6798 22.8251 43.3988C22.7497 43.326 22.6816 43.2603 22.625 43.2049C22.3575 42.9352 22.363 42.9251 22.3684 42.915C22.3714 42.9145 22.376 42.9154 22.4074 42.9218C22.4503 42.9305 22.5434 42.9495 22.7515 42.989Z" fill="#081734"/>
</svg>
